<?xml version="1.0" encoding="utf-8"?>
<!-- Generator: Adobe Illustrator 17.0.1, SVG Export Plug-In . SVG Version: 6.00 Build 0)  -->
<!DOCTYPE svg PUBLIC "-//W3C//DTD SVG 1.1//EN" "http://www.w3.org/Graphics/SVG/1.1/DTD/svg11.dtd">
<svg version="1.1" id="Capa_1" xmlns="http://www.w3.org/2000/svg" xmlns:xlink="http://www.w3.org/1999/xlink" x="0px" y="0px"
	 width="612px" height="792px" viewBox="0 0 612 792" enable-background="new 0 0 612 792" xml:space="preserve">
<linearGradient id="SVGID_1_" gradientUnits="userSpaceOnUse" x1="27.6938" y1="740.7488" x2="470.5151" y2="369.1776" gradientTransform="matrix(1.1953 0 0 1.1953 8.2423 -267.3545)">
	<stop  offset="0" style="stop-color:#5D2C91"/>
	<stop  offset="1" style="stop-color:#D6496F"/>
</linearGradient>
<path fill="url(#SVGID_1_)" d="M588.094,438.434c13.203,0,23.906-10.703,23.906-23.906V257.941
	c0-52.728-42.897-95.625-95.625-95.625H95.625C42.897,162.316,0,205.214,0,257.941v276.117c0,52.728,42.897,95.625,95.625,95.625
	h420.75c52.728,0,95.625-42.897,95.625-95.625c0-13.203-10.703-23.906-23.906-23.906s-23.906,10.703-23.906,23.906
	c0,26.364-21.449,47.813-47.813,47.813H95.625c-26.364,0-47.813-21.449-47.813-47.813V263.007l207.692,129.148
	c15.574,9.683,33.035,14.525,50.496,14.525s34.922-4.842,50.496-14.525l207.692-129.148v151.52
	C564.188,427.731,574.89,438.434,588.094,438.434z M331.247,351.551c-15.573,9.683-34.922,9.684-50.495,0L67.761,219.108
	c7.851-5.649,17.475-8.979,27.864-8.979h420.75c10.388,0,20.013,3.331,27.864,8.98L331.247,351.551z"/>
</svg>
