<?xml version="1.0" encoding="utf-8"?>
<!-- Generator: Adobe Illustrator 17.0.1, SVG Export Plug-In . SVG Version: 6.00 Build 0)  -->
<!DOCTYPE svg PUBLIC "-//W3C//DTD SVG 1.1//EN" "http://www.w3.org/Graphics/SVG/1.1/DTD/svg11.dtd">
<svg version="1.1" id="Layer_1" xmlns="http://www.w3.org/2000/svg" xmlns:xlink="http://www.w3.org/1999/xlink" x="0px" y="0px"
	 width="512px" height="512px" viewBox="0 0 512 512" enable-background="new 0 0 512 512" xml:space="preserve">
<linearGradient id="SVGID_1_" gradientUnits="userSpaceOnUse" x1="-19.4643" y1="70.8286" x2="375.6626" y2="402.3794" gradientTransform="matrix(1 0 0 -1 8.84 488.04)">
	<stop  offset="0" style="stop-color:#5D2C91"/>
	<stop  offset="1" style="stop-color:#D6496F"/>
</linearGradient>
<path fill="url(#SVGID_1_)" d="M362,362v40c0,44.113-35.887,80-80,80H81c-44.113,0-80-35.887-80-80V110c0-44.113,35.887-80,80-80
	h201c44.113,0,80,35.887,80,80v40c0,11.047-8.953,20-20,20s-20-8.953-20-20v-40c0-22.055-17.945-40-40-40H81
	c-22.055,0-40,17.945-40,40v292c0,22.055,17.945,40,40,40h201c22.055,0,40-17.945,40-40v-40c0-11.047,8.953-20,20-20
	S362,350.953,362,362z M498.355,221.645l-44.785-44.785c-7.813-7.813-20.477-7.813-28.285,0c-7.813,7.809-7.813,20.473,0,28.281
	L457.141,237H217c-11.047,0-20,8.953-20,20s8.953,20,20,20h240.141l-31.855,31.859c-7.813,7.809-7.813,20.473,0,28.281
	c3.906,3.906,9.023,5.859,14.141,5.859c5.121,0,10.238-1.953,14.145-5.859l44.785-44.785
	C517.852,272.859,517.852,241.141,498.355,221.645z"/>
</svg>
