<?xml version="1.0" encoding="utf-8"?>
<!-- Generator: Adobe Illustrator 17.0.1, SVG Export Plug-In . SVG Version: 6.00 Build 0)  -->
<!DOCTYPE svg PUBLIC "-//W3C//DTD SVG 1.1//EN" "http://www.w3.org/Graphics/SVG/1.1/DTD/svg11.dtd">
<svg version="1.1" id="Capa_1" xmlns="http://www.w3.org/2000/svg" xmlns:xlink="http://www.w3.org/1999/xlink" x="0px" y="0px"
	 width="612px" height="792px" viewBox="0 0 612 792" enable-background="new 0 0 612 792" xml:space="preserve">
<path fill="#C3C3C3" d="M588.094,505.05c13.203,0,23.906-10.703,23.906-23.906V281.527c0-19.157-7.46-37.168-21.006-50.713
	c-13.545-13.543-31.551-21-50.7-21h-0.013l-260.623-0.005c-9.781-42.4-47.841-74.115-93.164-74.125l-90.867-0.029
	c-52.728,0-95.625,42.897-95.625,95.625v349.439c0,0.14-0.002-0.139,0,0l0,0c0,52.728,42.897,95.625,95.625,95.625h420.749
	c52.727,0,95.625-42.897,95.625-95.625c0-13.203-10.703-23.906-23.906-23.906s-23.906,10.703-23.906,23.906
	c0,26.364-21.449,47.812-47.812,47.812H95.626c-26.364,0-47.812-21.449-47.812-47.811V231.28c0-0.172,0.004,0.171,0,0l0,0
	c0-26.364,21.449-47.812,47.804-47.812l90.863,0.029c26.358,0.006,47.802,21.453,47.802,47.812v2.406
	c0,13.203,10.703,23.906,23.906,23.906l282.097,0.005c6.384-0.001,12.386,2.484,16.902,6.999c4.515,4.514,7.001,10.518,7.001,16.903
	v199.617C564.188,494.347,574.89,505.05,588.094,505.05z M570.472,301.375H130.856c-13.203,0-23.906,10.703-23.906,23.906
	s10.703,23.906,23.906,23.906h439.617V301.375z"/>
</svg>
