<?xml version="1.0" encoding="utf-8"?>
<!-- Generator: Adobe Illustrator 17.0.1, SVG Export Plug-In . SVG Version: 6.00 Build 0)  -->
<!DOCTYPE svg PUBLIC "-//W3C//DTD SVG 1.1//EN" "http://www.w3.org/Graphics/SVG/1.1/DTD/svg11.dtd">
<svg version="1.1" id="Capa_1" xmlns="http://www.w3.org/2000/svg" xmlns:xlink="http://www.w3.org/1999/xlink" x="0px" y="0px"
	 width="612px" height="792px" viewBox="0 0 612 792" enable-background="new 0 0 612 792" xml:space="preserve">
<linearGradient id="SVGID_1_" gradientUnits="userSpaceOnUse" x1="83.6335" y1="719.0267" x2="412.1547" y2="443.3647" gradientTransform="matrix(1.1953 0 0 1.1953 8.2423 -267.3545)">
	<stop  offset="0" style="stop-color:#5D2C91"/>
	<stop  offset="1" style="stop-color:#D6496F"/>
</linearGradient>
<path fill="url(#SVGID_1_)" d="M180.492,396V225.508C180.492,156.303,236.795,100,306,100s125.508,56.303,125.508,125.508v60.961
	c0,13.203-10.703,23.906-23.906,23.906s-23.906-10.703-23.906-23.906v-60.961c0-42.841-34.854-77.695-77.695-77.695
	s-77.695,34.854-77.695,77.695V396c0,42.841,34.854,77.695,77.695,77.695s77.695-34.854,77.695-77.695
	c0-13.203,10.703-23.906,23.906-23.906s23.906,10.703,23.906,23.906c0,69.205-56.303,125.508-125.508,125.508
	S180.492,465.205,180.492,396z M527.133,396c0-13.203-10.703-23.906-23.906-23.906c-13.203,0-23.906,10.703-23.906,23.906
	c0,95.569-77.751,173.32-173.32,173.32S132.68,491.569,132.68,396c0-13.203-10.703-23.906-23.906-23.906S84.867,382.797,84.867,396
	c0,113.857,86.494,207.892,197.227,219.849v38.338H211.57c-13.203,0-23.906,10.703-23.906,23.906S198.367,702,211.57,702h191.25
	c13.203,0,23.906-10.703,23.906-23.906s-10.703-23.906-23.906-23.906h-72.914v-38.338C440.639,603.892,527.133,509.857,527.133,396z
	"/>
</svg>
