<?xml version="1.0" encoding="utf-8"?>
<!-- Generator: Adobe Illustrator 17.0.1, SVG Export Plug-In . SVG Version: 6.00 Build 0)  -->
<!DOCTYPE svg PUBLIC "-//W3C//DTD SVG 1.1//EN" "http://www.w3.org/Graphics/SVG/1.1/DTD/svg11.dtd">
<svg version="1.1" id="Capa_1" xmlns="http://www.w3.org/2000/svg" xmlns:xlink="http://www.w3.org/1999/xlink" x="0px" y="0px"
	 width="612px" height="792px" viewBox="0 0 612 792" enable-background="new 0 0 612 792" xml:space="preserve">
<path fill="#C3C3C3" d="M306,702c-81.735,0-158.579-31.83-216.375-89.625C31.83,554.578,0,477.735,0,396
	s31.83-158.579,89.625-216.375C147.421,121.83,224.265,90,306,90s158.579,31.83,216.375,89.625C580.17,237.421,612,314.265,612,396
	c0,60.399-17.927,119.142-51.845,169.873c-7.337,10.975-22.183,13.924-33.16,6.586c-10.975-7.338-13.924-22.185-6.586-33.16
	c28.641-42.84,43.78-92.392,43.78-143.299c0-142.365-115.822-258.188-258.188-258.188S47.813,253.635,47.813,396
	S163.635,654.188,306,654.188c47.221,0,93.406-12.857,133.561-37.181c11.291-6.842,25.992-3.233,32.834,8.061
	c6.841,11.292,3.231,25.992-8.061,32.834C416.706,686.75,361.956,702,306,702z M306,361c-19.33,0-35,15.67-35,35s15.67,35,35,35
	s35-15.67,35-35S325.33,361,306,361z M192,361c-19.33,0-35,15.67-35,35s15.67,35,35,35s35-15.67,35-35S211.33,361,192,361z M420,361
	c-19.33,0-35,15.67-35,35s15.67,35,35,35s35-15.67,35-35S439.33,361,420,361z"/>
</svg>
