<?xml version="1.0" encoding="utf-8"?>
<!-- Generator: Adobe Illustrator 17.0.1, SVG Export Plug-In . SVG Version: 6.00 Build 0)  -->
<!DOCTYPE svg PUBLIC "-//W3C//DTD SVG 1.1//EN" "http://www.w3.org/Graphics/SVG/1.1/DTD/svg11.dtd">
<svg version="1.1" id="Layer_1" xmlns="http://www.w3.org/2000/svg" xmlns:xlink="http://www.w3.org/1999/xlink" x="0px" y="0px"
	 width="512px" height="512px" viewBox="0 0 512 512" enable-background="new 0 0 512 512" xml:space="preserve">
<linearGradient id="SVGID_1_" gradientUnits="userSpaceOnUse" x1="59.8756" y1="420.5679" x2="449.9832" y2="93.2288">
	<stop  offset="0" style="stop-color:#5D2C91"/>
	<stop  offset="1" style="stop-color:#D6496F"/>
</linearGradient>
<path fill="url(#SVGID_1_)" d="M256,0c50.531,0,99.676,15,142.117,43.375c9.184,6.137,11.648,18.559,5.512,27.742
	c-6.141,9.184-18.563,11.648-27.742,5.512C340.043,52.664,298.59,40,256,40C136.898,40,40,136.898,40,256s96.898,216,216,216
	s216-96.898,216-216c0-39.504-10.758-78.145-31.105-111.738c-5.723-9.445-2.703-21.746,6.746-27.469
	c9.445-5.723,21.742-2.703,27.465,6.746C499.242,163.383,512,209.188,512,256c0,68.379-26.629,132.668-74.98,181.02
	S324.379,512,256,512s-132.668-26.629-181.02-74.98S0,324.379,0,256S26.629,123.332,74.98,74.98S187.621,0,256,0z M236,366.5
	v-90.018h-90c-11.046,0-20-8.954-20-20s8.954-20,20-20h90V145.5c0-11.046,8.954-20,20-20s20,8.954,20,20v90.982h90
	c11.046,0,20,8.954,20,20c0,11.046-8.954,20-20,20h-90V366.5c0,11.046-8.954,20-20,20S236,377.546,236,366.5L236,366.5z"/>
</svg>
