<?xml version="1.0" encoding="utf-8"?>
<!-- Generator: Adobe Illustrator 17.0.1, SVG Export Plug-In . SVG Version: 6.00 Build 0)  -->
<!DOCTYPE svg PUBLIC "-//W3C//DTD SVG 1.1//EN" "http://www.w3.org/Graphics/SVG/1.1/DTD/svg11.dtd">
<svg version="1.1" id="Layer_1" xmlns="http://www.w3.org/2000/svg" xmlns:xlink="http://www.w3.org/1999/xlink" x="0px" y="0px"
	 width="512px" height="512px" viewBox="0 0 512 512" enable-background="new 0 0 512 512" xml:space="preserve">
<path fill="#E24277" d="M364.009,186.597L294.601,256l69.403,69.403c10.662,10.662,10.662,27.944,0,38.601
	c-5.326,5.331-12.314,7.996-19.298,7.996s-13.972-2.665-19.303-7.991L256,294.601l-69.403,69.403
	c-5.331,5.331-12.32,7.996-19.303,7.996s-13.972-2.665-19.303-7.991c-10.656-10.662-10.656-27.944,0-38.601L217.399,256
	l-69.403-69.403c-10.662-10.662-10.662-27.944,0-38.601c10.656-10.662,27.939-10.662,38.601,0L256,217.399l69.403-69.403
	c10.662-10.662,27.944-10.662,38.601,0C374.666,158.653,374.666,175.935,364.009,186.597z"/>
</svg>
