<?xml version="1.0" encoding="utf-8"?>
<!-- Generator: Adobe Illustrator 17.0.1, SVG Export Plug-In . SVG Version: 6.00 Build 0)  -->
<!DOCTYPE svg PUBLIC "-//W3C//DTD SVG 1.1//EN" "http://www.w3.org/Graphics/SVG/1.1/DTD/svg11.dtd">
<svg version="1.1" id="Capa_1" xmlns="http://www.w3.org/2000/svg" xmlns:xlink="http://www.w3.org/1999/xlink" x="0px" y="0px"
	 width="612px" height="792px" viewBox="0 0 612 792" enable-background="new 0 0 612 792" xml:space="preserve">
<path fill="#919191" d="M600.202,396.288c-0.003-6.31-0.406-12.534-1.195-18.497l-0.149-1.135c-0.02-0.801-0.09-1.603-0.211-2.398
	c-3.608-23.753-13.509-43.869-29.43-59.79c-24.841-24.842-63.364-37.999-111.402-38.052c-0.469,0-0.937,0.017-1.404,0.051
	l-2.276,0.166l-2.284-0.166c-0.465-0.034-0.93-0.051-1.395-0.05c-48.023,0.037-86.546,13.195-111.403,38.052
	c-10.623,10.623-18.723,23.687-24.076,38.826c-0.277,0.783-0.502,1.583-0.674,2.395c-0.548,2.583-2.494,11.983-3.825,21.267
	l-110.867,0c-10.519,0-19.046,8.527-19.045,19.045c0,5.259,2.132,10.02,5.579,13.467c3.447,3.447,8.207,5.579,13.467,5.579h64.748
	c-1.015,3.802-2.174,7.71-3.308,11.131c-3.442,9.669-8.501,17.886-15.038,24.423c-17.46,17.46-46.431,26.755-83.815,26.894
	l-2.955-0.215c-0.92-0.066-1.843-0.067-2.763,0l-2.943,0.215c-37.399-0.154-66.374-9.448-83.821-26.895
	c-9.708-9.708-15.911-22.149-18.451-36.996c-0.025-0.527-0.073-1.054-0.142-1.579l-0.369-2.801
	c-0.572-4.327-0.863-8.881-0.867-13.538c-0.016-22.846,6.655-41.11,19.828-54.283c17.462-17.462,46.438-26.757,83.821-26.896
	l2.957,0.213c0.913,0.066,1.829,0.065,2.743-0.001l2.949-0.213c35.453,0.143,63.344,8.332,80.682,23.7
	c7.871,6.976,19.909,6.251,26.885-1.621c6.976-7.871,6.251-19.918-1.621-26.885c-24.863-22.035-60.725-33.234-106.587-33.285
	c-0.465,0.001-0.93,0.017-1.393,0.05l-2.287,0.164l-2.291-0.165c-0.46-0.033-0.922-0.05-1.384-0.049
	c-48.025,0.036-86.548,13.194-111.407,38.053c-20.583,20.583-31.007,47.918-30.984,81.244c0.003,6.31,0.406,12.534,1.195,18.497
	l0.149,1.135c0.02,0.801,0.09,1.603,0.211,2.398c3.608,23.753,13.509,43.869,29.43,59.79
	c24.842,24.842,63.364,37.999,111.402,38.052c0.469,0,0.937-0.017,1.404-0.05l2.276-0.166l2.284,0.166
	c0.465,0.034,0.93,0.05,1.395,0.05c48.023-0.037,86.546-13.195,111.403-38.052c10.622-10.622,18.722-23.685,24.075-38.825
	c0.038-0.108,0.076-0.216,0.112-0.325c0.915-2.744,4.214-12.927,6.391-23.337h108.863c10.519,0,19.046-8.527,19.045-19.045
	c-0.001-10.518-8.527-19.046-19.045-19.045H349.04c0.715-4.246,1.541-8.611,2.26-12.102c3.431-9.249,8.368-17.135,14.686-23.453
	c17.46-17.46,46.431-26.754,83.815-26.894l2.955,0.215c0.92,0.066,1.843,0.067,2.763,0l2.943-0.215
	c37.398,0.153,66.372,9.447,83.819,26.894c9.708,9.708,15.911,22.149,18.451,36.996c0.025,0.527,0.073,1.054,0.142,1.579
	l0.369,2.801c0.572,4.327,0.863,8.881,0.867,13.538c0.016,22.846-6.655,41.11-19.828,54.283
	c-17.463,17.463-46.436,26.758-83.822,26.897l-2.957-0.213c-0.913-0.066-1.829-0.065-2.743,0.001l-2.947,0.213
	c-34.472-0.151-62.361-8.805-80.685-25.046c-7.871-6.976-19.909-6.251-26.885,1.621c-6.717,7.58-6.294,19.019,0.773,26.087
	c0.272,0.272,0.556,0.539,0.848,0.799c25.507,22.607,62.365,34.58,106.588,34.63c0.465-0.001,0.93-0.017,1.393-0.051l2.287-0.165
	l2.291,0.166c0.46,0.033,0.922,0.05,1.384,0.049c48.025-0.036,86.548-13.194,111.407-38.053
	C589.801,456.949,600.225,429.614,600.202,396.288z"/>
</svg>
