<?xml version="1.0" encoding="utf-8"?>
<!-- Generator: Adobe Illustrator 17.0.1, SVG Export Plug-In . SVG Version: 6.00 Build 0)  -->
<!DOCTYPE svg PUBLIC "-//W3C//DTD SVG 1.1//EN" "http://www.w3.org/Graphics/SVG/1.1/DTD/svg11.dtd">
<svg version="1.1" id="Capa_1" xmlns="http://www.w3.org/2000/svg" xmlns:xlink="http://www.w3.org/1999/xlink" x="0px" y="0px"
	 width="156px" height="156px" viewBox="228.5 317.5 156 156" enable-background="new 228.5 317.5 156 156" xml:space="preserve">
<path fill="#22A8E6" d="M330.404,443.308c0-13.202-10.702-23.904-23.904-23.904c-13.181,0-23.904-10.723-23.904-23.904
	s10.723-23.904,23.904-23.904c13.181,0,23.904,10.723,23.904,23.904c0,13.202,10.702,23.904,23.904,23.904
	c13.202,0,23.904-10.702,23.904-23.904c0-39.542-32.169-71.712-71.712-71.712s-71.712,32.169-71.712,71.712
	s32.169,71.712,71.712,71.712C319.702,467.212,330.404,456.509,330.404,443.308z"/>
</svg>
