<?xml version="1.0" encoding="utf-8"?>
<!-- Generator: Adobe Illustrator 17.0.1, SVG Export Plug-In . SVG Version: 6.00 Build 0)  -->
<!DOCTYPE svg PUBLIC "-//W3C//DTD SVG 1.1//EN" "http://www.w3.org/Graphics/SVG/1.1/DTD/svg11.dtd">
<svg version="1.1" id="Capa_1" xmlns="http://www.w3.org/2000/svg" xmlns:xlink="http://www.w3.org/1999/xlink" x="0px" y="0px"
	 width="612px" height="792px" viewBox="0 0 612 792" enable-background="new 0 0 612 792" xml:space="preserve">
<path fill="#C3C3C3" d="M360.984,90c-138.41,0-251.016,112.606-251.016,251.016c0,60.894,21.802,116.787,58.003,160.3L7.06,661.132
	c-9.368,9.304-9.419,24.441-0.116,33.808c4.674,4.705,10.818,7.06,16.963,7.06c6.09,0,12.183-2.314,16.846-6.945l161.129-160.033
	c43.34,35.606,98.767,57.009,159.103,57.009c43.062,0,85.556-11.096,122.883-32.089c11.508-6.471,15.59-21.047,9.118-32.556
	c-6.471-11.507-21.047-15.592-32.556-9.118c-30.186,16.977-64.574,25.95-99.445,25.95c-112.046,0-203.203-91.157-203.203-203.203
	s91.157-203.203,203.203-203.203s203.203,91.157,203.203,203.203c0,35.299-9.184,70.056-26.556,100.515
	c-6.542,11.469-2.547,26.069,8.921,32.611c11.469,6.541,26.069,2.547,32.611-8.921C600.645,427.556,612,384.607,612,341.016
	C612,202.606,499.394,90,360.984,90z"/>
</svg>
