<?xml version="1.0" encoding="utf-8"?>
<!-- Generator: Adobe Illustrator 17.0.1, SVG Export Plug-In . SVG Version: 6.00 Build 0)  -->
<!DOCTYPE svg PUBLIC "-//W3C//DTD SVG 1.1//EN" "http://www.w3.org/Graphics/SVG/1.1/DTD/svg11.dtd">
<svg version="1.1" id="Capa_1" xmlns="http://www.w3.org/2000/svg" xmlns:xlink="http://www.w3.org/1999/xlink" x="0px" y="0px"
	 width="612px" height="792px" viewBox="0 0 612 792" enable-background="new 0 0 612 792" xml:space="preserve">
<path fill="#FFFFFF" d="M604.877,438.799c9.333,9.333,9.333,24.463,0,33.795c-4.665,4.665-10.781,7-16.897,7s-12.232-2.333-16.897-7
	l-42.845-42.845l-42.845,42.845c-4.665,4.665-10.781,7-16.897,7c-6.116,0-12.232-2.333-16.897-7c-9.333-9.333-9.333-24.463,0-33.795
	l42.845-42.845L451.6,353.11c-9.333-9.333-9.333-24.463,0-33.795c9.333-9.332,24.463-9.333,33.795,0l42.845,42.845l42.845-42.845
	c9.333-9.333,24.463-9.333,33.795,0c9.332,9.333,9.333,24.463,0,33.795l-42.845,42.845L604.877,438.799z M352.816,95.825
	c-27.135-11.442-57.09-5.777-78.175,14.782c-0.496,0.484-0.971,0.989-1.422,1.513L137.825,269.302H95.71
	c-52.706,0-95.587,42.881-95.587,95.587v62.131c0,52.706,42.881,95.587,95.587,95.587h42.117L273.22,679.787
	c0.452,0.525,0.926,1.03,1.422,1.513c13.935,13.587,31.714,20.699,49.995,20.698c9.481,0,19.099-1.914,28.38-5.827
	c27.009-11.388,43.788-36.69,43.788-66.031c0-13.199-10.698-23.897-23.897-23.897c-13.199,0-23.897,10.698-23.897,23.897
	c0,14.71-11.146,20.552-14.563,21.993c-3.413,1.439-15.2,5.286-25.8-4.442L166.887,483.116c-4.539-5.27-11.15-8.3-18.105-8.3H95.71
	c-26.353,0-47.793-21.44-47.793-47.793v-62.131c0-26.353,21.44-47.793,47.793-47.793h53.072c6.956,0,13.566-3.031,18.105-8.3
	l141.762-164.577c10.485-9.616,22.204-5.785,25.598-4.356c3.464,1.461,14.766,7.382,14.766,22.252V510.66
	c0,13.199,10.698,23.897,23.897,23.897c13.199,0,23.897-10.698,23.897-23.897V162.116
	C396.807,132.667,379.95,107.265,352.816,95.825z"/>
</svg>
