<?xml version="1.0" encoding="utf-8"?>
<!-- Generator: Adobe Illustrator 17.0.1, SVG Export Plug-In . SVG Version: 6.00 Build 0)  -->
<!DOCTYPE svg PUBLIC "-//W3C//DTD SVG 1.1//EN" "http://www.w3.org/Graphics/SVG/1.1/DTD/svg11.dtd">
<svg version="1.1" id="Capa_1" xmlns="http://www.w3.org/2000/svg" xmlns:xlink="http://www.w3.org/1999/xlink" x="0px" y="0px"
	 width="612px" height="792px" viewBox="0 0 612 792" enable-background="new 0 0 612 792" xml:space="preserve">
<path fill="#FFFFFF" d="M476.841,477.208c-3.854,0-7.76-0.934-11.384-2.902c-11.597-6.299-15.893-20.808-9.594-32.405l0.586-1.073
	c4.798-8.802,12.05-22.104,12.05-44.867c0-23.649-7.474-36.838-12.422-45.564c-6.507-11.482-2.474-26.065,9.007-32.573
	c11.483-6.508,26.064-2.474,32.573,9.007c6.048,10.672,18.635,32.879,18.635,69.131c0,34.946-11.633,56.281-17.882,67.744
	l-0.549,1.006C493.53,472.685,485.317,477.208,476.841,477.208z M533.108,207.546c-9.377-9.288-24.509-9.216-33.795,0.161
	c-9.288,9.377-9.216,24.507,0.161,33.795c41.665,41.269,64.61,96.09,64.61,154.361c0,58.391-22.945,113.277-64.61,154.547
	c-9.377,9.288-9.449,24.419-0.161,33.795c4.672,4.718,10.824,7.08,16.978,7.08c6.077,0,12.158-2.305,16.816-6.92
	c50.796-50.313,78.769-117.259,78.769-188.503C611.877,324.738,583.904,257.859,533.108,207.546z M352.816,95.825
	c-27.135-11.442-57.09-5.777-78.175,14.782c-0.496,0.484-0.971,0.989-1.422,1.513L137.825,269.302H95.71
	c-52.706,0-95.587,42.881-95.587,95.587v62.131c0,52.706,42.881,95.587,95.587,95.587h42.117L273.22,679.787
	c0.452,0.525,0.926,1.03,1.422,1.513c13.935,13.587,31.714,20.699,49.995,20.698c9.481,0,19.099-1.914,28.38-5.827
	c27.009-11.388,43.788-36.69,43.788-66.031c0-13.199-10.698-23.897-23.897-23.897c-13.199,0-23.897,10.698-23.897,23.897
	c0,14.71-11.146,20.552-14.563,21.993c-3.413,1.439-15.2,5.286-25.8-4.442L166.887,483.116c-4.539-5.27-11.15-8.3-18.105-8.3H95.71
	c-26.353,0-47.793-21.44-47.793-47.793v-62.131c0-26.353,21.44-47.793,47.793-47.793h53.072c6.956,0,13.566-3.031,18.105-8.3
	l141.762-164.577c10.485-9.616,22.204-5.785,25.598-4.356c3.464,1.461,14.766,7.382,14.766,22.252V510.66
	c0,13.199,10.698,23.897,23.897,23.897c13.199,0,23.897-10.698,23.897-23.897V162.116
	C396.808,132.667,379.95,107.265,352.816,95.825z"/>
</svg>
