<?xml version="1.0" encoding="utf-8"?>
<!-- Generator: Adobe Illustrator 17.0.1, SVG Export Plug-In . SVG Version: 6.00 Build 0)  -->
<!DOCTYPE svg PUBLIC "-//W3C//DTD SVG 1.1//EN" "http://www.w3.org/Graphics/SVG/1.1/DTD/svg11.dtd">
<svg version="1.1" id="Layer_1" xmlns="http://www.w3.org/2000/svg" xmlns:xlink="http://www.w3.org/1999/xlink" x="0px" y="0px"
	 width="512px" height="512px" viewBox="0 0 512 512" enable-background="new 0 0 512 512" xml:space="preserve">
<linearGradient id="SVGID_1_" gradientUnits="userSpaceOnUse" x1="8.2887" y1="7.158" x2="475.8849" y2="399.5177" gradientTransform="matrix(1 0 0 -1 8.34 488.04)">
	<stop  offset="0" style="stop-color:#5D2C91"/>
	<stop  offset="1" style="stop-color:#D6496F"/>
</linearGradient>
<path fill="url(#SVGID_1_)" d="M492,321c-1.91,0-3.75,0.285-5.5,0.785c-1.75-0.5-3.59-0.785-5.5-0.785H347
	c-6.461,0-12.52,3.117-16.273,8.375L306.707,363H202.293l-24.02-33.625c-3.754-5.258-9.82-8.375-16.277-8.375H70V220
	c0-11.027,8.973-20,20-20h332c11.027,0,20,8.973,20,20v21c0,11.047,8.953,20,20,20s20-8.953,20-20v-21
	c0-17.758-7.762-33.734-20.063-44.73c0.027-0.422,0.063-0.84,0.063-1.27v-34c0-17.73-7.734-33.68-20-44.672V60
	c0-33.086-26.914-60-60-60H130C96.914,0,70,26.914,70,60v35.328C57.734,106.32,50,122.27,50,140v30c0,1.66,0.223,3.262,0.605,4.805
	C37.992,185.809,30,201.984,30,220v101h-1c-1.551,0-3.051,0.191-4.5,0.527C23.051,321.191,21.551,321,20,321
	c-11.047,0-20,8.953-20,20v91c0,44.113,35.887,80,80,80h352c44.113,0,80-35.887,80-80v-91C512,329.953,503.047,321,492,321z M110,60
	c0-11.027,8.973-20,20-20h252c11.027,0,20,8.973,20,20v20H110V60z M90,140c0-11.027,8.973-20,20-20h292c11.027,0,20,8.973,20,20v20
	H90V140z M432,472H80c-22.055,0-40-17.945-40-40v-71h111.707l24.02,33.625C179.48,399.883,185.539,403,192,403h125
	c6.461,0,12.52-3.117,16.273-8.375L357.293,361H472v71C472,454.055,454.055,472,432,472z"/>
</svg>
