<?xml version="1.0" encoding="utf-8"?>
<!-- Generator: Adobe Illustrator 17.0.1, SVG Export Plug-In . SVG Version: 6.00 Build 0)  -->
<!DOCTYPE svg PUBLIC "-//W3C//DTD SVG 1.1//EN" "http://www.w3.org/Graphics/SVG/1.1/DTD/svg11.dtd">
<svg version="1.1" id="Capa_1" xmlns="http://www.w3.org/2000/svg" xmlns:xlink="http://www.w3.org/1999/xlink" x="0px" y="0px"
	 width="612px" height="792px" viewBox="0 0 612 792" enable-background="new 0 0 612 792" xml:space="preserve">
<linearGradient id="SVGID_1_" gradientUnits="userSpaceOnUse" x1="45.5958" y1="809.9533" x2="468.4008" y2="455.1778" gradientTransform="matrix(1.1951 0 0 1.1951 8.2425 -267.1102)">
	<stop  offset="0" style="stop-color:#5D2C91"/>
	<stop  offset="1" style="stop-color:#D6496F"/>
</linearGradient>
<path fill="url(#SVGID_1_)" d="M612,663.069c0,13.146-10.756,23.902-23.902,23.902H95.606C42.903,686.97,0,644.067,0,591.364
	v-227.54c0-29.399,13.863-57.603,37.167-75.648l216.309-167.192c0.598-0.478,1.315-0.956,2.032-1.434
	c31.192-19.36,69.793-19.36,100.984,0c0.717,0.478,1.315,0.837,2.032,1.434l216.309,167.192
	c17.329,14.699,23.065,25.575,24.26,27.845C606.742,330.721,612,346.974,612,363.824v183.181c0,13.146-10.756,23.902-23.902,23.902
	s-23.902-10.756-23.902-23.902V363.824c0-0.717,0-1.434,0-2.151L358.165,517.392c-0.598,0.478-1.195,0.837-1.793,1.195
	c-15.536,9.68-32.984,14.461-50.432,14.461c-17.448,0-34.896-4.9-50.432-14.461c-0.598-0.359-1.195-0.717-1.673-1.195
	L111.142,410.671c-10.517-7.888-12.668-22.945-4.78-33.462c7.888-10.517,22.826-12.668,33.462-4.78l141.617,106.003
	c15.177,9.083,33.701,9.083,48.879,0l208.422-157.631L330.2,159.585c-15.058-8.963-33.462-8.963-48.64,0L66.446,326.06
	c-11.592,8.963-18.524,23.065-18.524,37.764v227.54c0,26.411,21.392,47.803,47.803,47.803h492.492
	C601.244,639.167,612,649.923,612,663.069z"/>
</svg>
